Normalized EMG Linear Envelopes
nRows=107
nColumns=4

endheader
time	 med_gas_r	  soleus_r	 tib_ant_r	
3.57863	  0.011233	  0.015165	  0.007913	
3.6502	  0.011534	  0.015881	  0.007714	
3.72177	  0.012272	  0.016894	  0.007287	
3.79335	  0.013194	  0.018182	  0.006231	
3.86492	  0.013765	  0.018789	  0.005457	
3.93649	  0.014086	  0.018419	  0.005176	
4.00806	  0.013824	  0.017893	  0.005151	
4.07964	  0.013049	  0.017230	  0.005093	
4.15121	  0.012151	  0.017153	  0.004998	
4.22278	  0.011298	  0.017359	  0.004889	
4.29435	  0.010953	  0.017050	  0.004781	
4.36593	  0.011399	  0.016914	  0.004904	
4.4375	  0.012016	  0.016450	  0.005399	
4.50907	  0.012711	  0.016473	  0.006279	
4.58065	  0.013796	  0.016850	  0.007608	
4.65222	  0.014432	  0.017341	  0.008663	
4.72379	  0.014574	  0.017769	  0.008506	
4.79536	  0.014423	  0.017855	  0.007853	
4.86694	  0.013963	  0.017474	  0.007141	
4.93851	  0.013392	  0.016484	  0.006470	
5.01008	  0.012621	  0.015943	  0.005959	
5.08165	  0.012541	  0.016636	  0.005851	
5.15323	  0.013669	  0.018113	  0.006211	
5.2248	  0.015344	  0.020850	  0.007063	
5.29637	  0.016679	  0.024045	  0.008045	
5.36794	  0.016198	  0.025017	  0.008550	
5.43952	  0.013864	  0.020397	  0.008152	
5.51109	  0.012294	  0.016173	  0.007571	
5.58266	  0.014512	  0.025294	  0.009212	
5.65423	  0.024043	  0.059937	  0.014822	
5.72581	  0.041309	  0.122506	  0.023751	
5.79738	  0.060929	  0.194989	  0.032542	
5.86895	  0.075804	  0.245671	  0.037441	
5.94052	  0.084077	  0.261671	  0.039193	
6.0121	  0.089241	  0.256065	  0.039958	
6.08367	  0.095690	  0.254242	  0.040709	
6.15524	  0.104439	  0.266029	  0.041991	
6.22681	  0.113607	  0.283193	  0.044587	
6.29839	  0.119830	  0.302847	  0.048885	
6.36996	  0.120965	  0.309016	  0.053545	
6.44153	  0.118572	  0.297558	  0.056592	
6.5131	  0.119006	  0.290390	  0.056383	
6.58468	  0.121292	  0.290658	  0.053318	
6.65625	  0.115969	  0.288009	  0.048038	
6.72782	  0.113895	  0.297685	  0.044802	
6.7994	  0.124164	  0.317464	  0.046292	
6.87097	  0.136241	  0.334673	  0.049568	
6.94254	  0.144579	  0.348602	  0.051749	
7.01411	  0.147419	  0.353980	  0.052324	
7.08569	  0.147787	  0.342745	  0.051104	
7.15726	  0.139327	  0.324181	  0.049307	
7.22883	  0.122706	  0.296044	  0.046705	
7.3004	  0.110892	  0.271109	  0.046273	
7.37198	  0.104808	  0.249140	  0.049165	
7.44355	  0.101785	  0.240523	  0.052699	
7.51512	  0.103696	  0.250662	  0.054406	
7.58669	  0.113350	  0.276827	  0.055223	
7.65827	  0.125095	  0.312658	  0.056674	
7.72984	  0.132200	  0.342407	  0.056168	
7.80141	  0.137040	  0.352614	  0.054768	
7.87298	  0.140749	  0.349296	  0.053387	
7.94456	  0.142044	  0.340844	  0.053624	
8.01613	  0.138893	  0.333434	  0.055122	
8.0877	  0.133482	  0.327566	  0.056434	
8.15927	  0.128800	  0.318070	  0.055588	
8.23085	  0.125838	  0.307146	  0.053020	
8.30242	  0.122289	  0.302393	  0.050337	
8.37399	  0.113096	  0.294393	  0.047202	
8.44556	  0.102723	  0.285127	  0.044970	
8.51714	  0.095392	  0.281569	  0.044494	
8.58871	  0.095428	  0.287497	  0.044323	
8.66028	  0.103893	  0.294931	  0.042948	
8.73185	  0.116058	  0.297112	  0.041514	
8.80343	  0.128709	  0.297826	  0.042513	
8.875	  0.142973	  0.303548	  0.047179	
8.94657	  0.155328	  0.311034	  0.052205	
9.01815	  0.157748	  0.317147	  0.054530	
9.08972	  0.154274	  0.314123	  0.054509	
9.16129	  0.157269	  0.316746	  0.053277	
9.23286	  0.163493	  0.328246	  0.053517	
9.30444	  0.165187	  0.341884	  0.055983	
9.37601	  0.162782	  0.350551	  0.059755	
9.44758	  0.157136	  0.351697	  0.060998	
9.51915	  0.147457	  0.351229	  0.058901	
9.59073	  0.140916	  0.348481	  0.058502	
9.6623	  0.135470	  0.338063	  0.060037	
9.73387	  0.135127	  0.328714	  0.060652	
9.80544	  0.135275	  0.325925	  0.058430	
9.87702	  0.138010	  0.328478	  0.055311	
9.94859	  0.146181	  0.317094	  0.050784	
10.0202	  0.153646	  0.298659	  0.046370	
10.0917	  0.149471	  0.281991	  0.043417	
10.1633	  0.138181	  0.273320	  0.042652	
10.2349	  0.127182	  0.271585	  0.043608	
10.3065	  0.118370	  0.269383	  0.044203	
10.378	  0.117037	  0.271312	  0.043190	
10.4496	  0.113985	  0.268550	  0.041653	
10.5212	  0.101875	  0.254440	  0.040141	
10.5927	  0.086410	  0.230128	  0.037861	
10.6643	  0.077071	  0.208929	  0.034241	
10.7359	  0.072329	  0.188598	  0.030828	
10.8075	  0.065146	  0.166717	  0.028549	
10.879	  0.054646	  0.148563	  0.027923	
10.9506	  0.045822	  0.138140	  0.028587	
11.0222	  0.041236	  0.133191	  0.029946	
11.0937	  0.038819	  0.128380	  0.030569	
11.1653	  0.035832	  0.121410	  0.029378	
